# xmcd
#
# Track frame offsets:
#   150
#   22984
#   43506
#   58366
#   79958
#   98029
#   112537
#   131359
#   147585
#   167867
#   187739
#   206039
#   219608
#   238161
#
# Disc length: 3393 seconds
#
# Revision: 0
# Processed by: cddbd v1.5.1PL2 Copyright (c) Steve Scherf et al.
# Submitted via: GXTranscoder 2.0.1939
#
DISCID=c30d3f0e
DTITLE=Damas y reinas - Damas y reinas
DYEAR=1900
DGENRE=Alternative
TTITLE0=sola
TTITLE1=aquel corazon
TTITLE2=dame
TTITLE3=desatame
TTITLE4=pena, penita, pena
TTITLE5=sevillanas de los bloques
TTITLE6=lo siento mi amor
TTITLE7=diles
TTITLE8=cai
TTITLE9=sabor sabor
TTITLE10=maría se bebe las calles
TTITLE11=se acabo
TTITLE12=el dia que se hizo tarde
TTITLE13=la gata bajo la lluvia
EXTD=
EXTT0=
EXTT1=
EXTT2=
EXTT3=
EXTT4=
EXTT5=
EXTT6=
EXTT7=
EXTT8=
EXTT9=
EXTT10=
EXTT11=
EXTT12=
EXTT13=
PLAYORDER=
